<svg width="32" height="32" viewBox="0 0 32 32" xmlns="http://www.w3.org/2000/svg" shape-rendering="crispEdges">
  <!-- Outline -->
  <path fill="#000" d="M6 6h4v2H6zM14 6h4v2h-4zM22 6h4v2h-4zM4 8h2v4H4zM10 8h4v4h-4zM18 8h4v4h-4zM26 8h2v4h-2zM6 12h2v14H6zM24 12h2v14h-2zM8 26h16v2H8zM6 28h20v2H6z"/>
  <!-- Body -->
  <path fill="#424242" d="M6 8h4v4h4v-4h4v4h4v-4h4v4h-2v14h-16V12H6zM8 26h16v2H8zM6 28h20v2H6z"/>
  <!-- Shading -->
  <path fill="#212121" d="M22 12h2v14h-2zM20 12h2v2H20zM24 26h2v2h-2zM26 28h2v2h-2z"/>
  <!-- Highlight -->
  <path fill="#757575" d="M6 8h1v4h4v-4h1v4h4v-4h1v18H8z"/>
  <!-- Gems -->
  <rect x="7" y="9" width="2" height="2" fill="#04f06a"/>
  <rect x="15" y="9" width="2" height="2" fill="#04f06a"/>
  <rect x="23" y="9" width="2" height="2" fill="#04f06a"/>
</svg>
