<svg width="32" height="32" viewBox="0 0 32 32" xmlns="http://www.w3.org/2000/svg" shape-rendering="crispEdges">
  <!-- Outline -->
  <path fill="#000" d="M12 4h8v2h4v2h2v10h-2v2h2v6H8v-6h2V12h2V8h-2V6h2V4zM8 26h16v2H8zM6 28h20v2H6z"/>
  <!-- Body -->
  <path fill="#424242" d="M14 6h6v2h4v10h-2v2h2v6H10v-6h2V12h2V8h-2V6h2zM8 28h16v2H8z"/>
  <!-- Shading -->
  <path fill="#212121" d="M18 6h2v2h4v10h-2v8h-2V6zM22 26h2v4h-2z"/>
  <!-- Highlight -->
  <path fill="#757575" d="M14 6h1v20h-1zM14 8h-2v4h-2v6h2v-6h2z"/>
  <!-- Eye -->
  <rect x="22" y="10" width="2" height="2" fill="#04f06a"/>
</svg>
