<svg width="32" height="32" viewBox="0 0 32 32" xmlns="http://www.w3.org/2000/svg" shape-rendering="crispEdges">
  <!-- Outline -->
  <path fill="#000" d="M14 2h4v2h-4zM12 4h2v2h-2zM18 4h2v2h-2zM10 6h2v4h-2zM20 6h2v4h-2zM8 10h2v10H8zM22 10h2v10h-2zM10 20h2v6h-2zM20 20h2v6h-2zM8 26h16v2H8zM6 28h20v2H6z"/>
  <!-- Body -->
  <path fill="#424242" d="M14 4h4v2h-4zM12 6h8v4h-8zM10 10h12v10H10zM12 20h8v6h-8zM8 26h16v2H8zM6 28h20v2H6z"/>
  <!-- Shading -->
  <path fill="#212121" d="M16 4h2v6h-2zM18 6h2v4h-2zM20 10h2v10h-2v6h-2zM22 26h2v2h-2zM24 28h2v2h-2z"/>
  <!-- Highlight -->
  <path fill="#757575" d="M14 4h1v2h-1zM12 6h1v4h-1zM10 10h1v16H10z"/>
</svg>
