<svg width="32" height="32" viewBox="0 0 32 32" xmlns="http://www.w3.org/2000/svg" shape-rendering="crispEdges">
  <!-- Outline -->
  <path fill="#000" d="M4 4h6v4H4zM12 4h8v4h-8zM22 4h6v4h-6zM4 8h24v4H4zM6 12h20v14H6zM4 26h24v2H4zM2 28h28v2H2z"/>
  <!-- Body -->
  <path fill="#424242" d="M4 6h6v2h-6zM12 6h8v2h-8zM22 6h6v2h-6zM4 8h24v4H4zM6 12h20v14H6zM4 26h24v4H4z"/>
  <!-- Shading -->
  <path fill="#212121" d="M8 6h2v2H8zM18 6h2v2h-2zM26 6h2v2h-2zM24 8h4v4h-4zM22 12h4v14h-4zM24 26h4v4h-4z"/>
  <!-- Highlight -->
  <path fill="#757575" d="M4 6h1v6h23V6h1v20H4z"/>
  <!-- Windows -->
  <rect x="10" y="16" width="4" height="4" fill="#04f06a" opacity="0.6"/>
  <rect x="18" y="16" width="4" height="4" fill="#04f06a" opacity="0.6"/>
</svg>
