<svg width="32" height="32" viewBox="0 0 32 32" xmlns="http://www.w3.org/2000/svg" shape-rendering="crispEdges">
  <!-- Outline -->
  <path fill="#000" d="M12 4h8v2h-8zM10 6h2v4h-2zM20 6h2v4h-2zM8 10h2v6H8zM22 10h2v6h-2zM10 16h2v4h-2zM20 16h2v4h-2zM8 20h2v6H8zM22 20h2v6h-2zM6 26h20v2H6zM4 28h24v2H4z"/>
  <!-- Body -->
  <path fill="#FFF" d="M12 6h8v4h-8zM10 10h12v6H10zM12 16h8v4h-8zM10 20h12v6H10zM8 26h16v2H8zM6 28h20v2H6z"/>
  <!-- Shading -->
  <path fill="#B0BEC5" d="M18 6h2v4h-2zM20 10h2v6h-2zM18 16h2v4h-2zM20 20h2v6h-2zM22 26h2v2h-2zM24 28h2v2h-2z"/>
</svg>
