<svg width="32" height="32" viewBox="0 0 32 32" xmlns="http://www.w3.org/2000/svg" shape-rendering="crispEdges">
  <!-- Outline -->
  <path fill="#000" d="M14 2h4v2h2v4h-2v2h4v2h2v10h-2v4H6v-4H4V12h2v-2h4V8H8V4h2v2h4V2z"/>
  <!-- Body -->
  <path fill="#FFF" d="M14 4h4v6h-4zM8 6h2v4h4v2h4v-2h4v-4h2v6h-2v2h-2v10h-12V12h-2v-2h-2V6zM8 24h16v4H8z"/>
  <!-- Shading -->
  <path fill="#B0BEC5" d="M16 4h2v6h-2zM18 6h2v4h-2zM24 12h2v10h-2v4h-2V12zM22 24h2v4h-2z"/>
  <!-- Gem -->
  <rect x="14" y="6" width="4" height="2" fill="#04f06a"/>
</svg>
